<?xml version="1.0" encoding="utf-8"?>
<!-- Generator: Adobe Illustrator 14.0.0, SVG Export Plug-In . SVG Version: 6.00 Build 43363)  -->
<!DOCTYPE svg PUBLIC "-//W3C//DTD SVG 1.1//EN" "http://www.w3.org/Graphics/SVG/1.1/DTD/svg11.dtd">
<svg version="1.1" id="Layer_1" xmlns="http://www.w3.org/2000/svg" xmlns:xlink="http://www.w3.org/1999/xlink" x="0px" y="0px"
	 width="248.539px" height="97.481px" viewBox="-91.5 24.5 248.539 97.481" enable-background="new -91.5 24.5 248.539 97.481"
	 xml:space="preserve">
<g>
	<g>
		<path fill="#5881D8" d="M66.195,85.611c0,0.812-0.323,1.592-0.897,2.166l-13.727,13.727c-0.772,0.772-2.093,0.226-2.093-0.867
			V69.88l16.526-16.434h0.19V85.611z"/>
		<path fill="#90B4FE" d="M55.242,42.493c-0.479-0.479-1.255-0.479-1.734,0l-20.41,20.41h-0.284v23.036l0.284,0.604l16.381-16.381
			l16.717-16.717L55.242,42.493z"/>
		<path fill="#63B132" d="M0,85.611c0,0.812,0.323,1.592,0.898,2.166l13.726,13.727c0.772,0.772,2.093,0.226,2.093-0.867V69.88
			L0.19,53.447H0V85.611z"/>
		<path fill="#91DC47" d="M12.688,42.493c-0.479-0.479-1.255-0.479-1.734,0L0,53.447l16.717,16.717l16.381,16.381V62.903
			L12.688,42.493z"/>
	</g>
</g>
<g>
	<g>
	</g>
</g>
<g>
	<path fill="#14233C" d="M41.59,181.283v-26.768h7.128v3.588c1.645-2.741,4.038-4.087,7.278-4.087c3.241,0,5.683,1.396,7.428,4.287
		c2.792-2.941,4.935-4.287,8.275-4.287c6.032,0,9.421,3.39,9.421,9.62v17.646h-7.677v-14.506c0-3.738-0.797-5.434-3.739-5.434
		c-2.991,0-4.586,1.845-4.586,5.434v14.506h-7.727v-14.506c0-3.738-0.798-5.434-3.739-5.434c-2.991,0-4.586,1.845-4.586,5.434
		v14.506H41.59z"/>
	<path fill="#14233C" d="M89.611,158.004c2.691-2.691,6.23-4.188,9.869-4.188c3.889,0,7.229,1.347,9.92,3.889
		c2.842,2.691,4.387,6.381,4.387,10.02c0,4.037-1.346,7.377-4.037,10.069c-2.742,2.741-6.131,4.187-10.17,4.187
		c-4.087,0-7.377-1.395-10.119-4.286c-2.592-2.692-3.938-6.132-3.938-9.87S86.969,160.646,89.611,158.004z M99.631,174.504
		c3.488,0,6.33-2.941,6.33-6.58c0-3.688-2.842-6.629-6.33-6.629c-3.49,0-6.332,2.94-6.332,6.629
		C93.3,171.562,96.191,174.504,99.631,174.504z"/>
	<path fill="#14233C" d="M118.189,181.283v-26.768h7.479l-0.101,3.588c1.646-2.691,4.138-4.087,7.677-4.087
		c5.533,0,9.123,3.489,9.123,9.62v17.646h-7.877v-14.506c0-3.738-0.797-5.434-3.838-5.434c-3.092,0-4.736,1.845-4.736,5.434v14.506
		H118.189z"/>
	<path fill="#14233C" d="M167.707,178.293c-2.344,2.293-4.736,3.141-7.927,3.141c-3.239,0-6.031-1.047-8.374-3.141
		c-3.092-2.742-4.686-6.331-4.686-10.519c0-3.838,1.494-7.278,4.286-9.97c2.493-2.442,5.534-3.688,8.923-3.688
		c3.24,0,5.732,1.097,7.527,3.39v-11.664h7.876v35.442h-7.626V178.293L167.707,178.293z M161.525,174.305
		c3.39,0,6.23-2.791,6.23-6.48c0-3.838-2.842-6.729-6.529-6.729c-3.739,0-6.631,3.04-6.631,6.629
		C154.596,171.463,157.487,174.305,161.525,174.305z"/>
	<path fill="#14233C" d="M183.823,158.004c2.692-2.691,6.231-4.188,9.87-4.188c3.889,0,7.229,1.347,9.92,3.889
		c2.842,2.691,4.387,6.381,4.387,10.02c0,4.038-1.346,7.378-4.037,10.069c-2.742,2.741-6.132,4.188-10.17,4.188
		c-4.088,0-7.377-1.396-10.119-4.287c-2.592-2.692-3.938-6.132-3.938-9.87S181.182,160.646,183.823,158.004z M193.843,174.504
		c3.489,0,6.331-2.941,6.331-6.58c0-3.688-2.842-6.629-6.331-6.629s-6.331,2.94-6.331,6.629
		C187.512,171.562,190.403,174.504,193.843,174.504z"/>
</g>
</svg>
